<mxfile host="app.diagrams.net" modified="2023-10-31T14:59:26.434Z" agent="Mozilla/5.0 (Windows NT 10.0; Win64; x64) AppleWebKit/537.36 (KHTML, like Gecko) Chrome/118.0.0.0 Safari/537.36" version="22.0.8" etag="gHhhtraMple3hGF1Q2f0" type="github">
  <diagram name="Страница — 1" id="7yX7PNoQr-8G2_JvN4mK">
    <mxGraphModel>
      <root>
        <mxCell id="0" />
        <mxCell id="1" parent="0" />
      </root>
    </mxGraphModel>
  </diagram>
</mxfile>
